<?xml version="1.0" standalone="no"?>
<!DOCTYPE svg PUBLIC "-//W3C//DTD SVG 1.1//EN" "http://www.w3.org/Graphics/SVG/1.1/DTD/svg11.dtd" >
<svg>
<metadata>
Created by FontForge 20090914 at Thu Feb  6 12:11:53 2014
 By www-data
(C) 2001 Graham H Freeman. (C) 1998 Andrew C. Bul+hac?k. Freely distributable.
</metadata>
<defs>
<font id="ModeNine" horiz-adv-x="600" >
  <font-face 
    font-family="ModeNine"
    font-weight="400"
    font-stretch="normal"
    units-per-em="1000"
    panose-1="0 0 4 0 0 0 0 0 0 0"
    ascent="800"
    descent="-200"
    x-height="500"
    cap-height="700"
    bbox="0 -200.003 600.001 800"
    underline-thickness="20"
    underline-position="-123"
    unicode-range="U+0020-U+00F7"
  />
<missing-glyph 
d="M75 0v800h450v-800h-450zM150 75h300v650h-300v-650z" />
    <glyph glyph-name=".notdef" 
d="M75 0v800h450v-800h-450zM150 75h300v650h-300v-650z" />
    <glyph glyph-name="space" unicode=" " 
 />
    <glyph glyph-name="exclam" unicode="!" 
d="M400 200h-100v500h100v-500zM400 0h-100v100h100v-100z" />
    <glyph glyph-name="quotedbl" unicode="&#x22;" 
d="M500 400h-100v300h100v-300zM300 400h-100v300h100v-300z" />
    <glyph glyph-name="numbersign" unicode="#" 
d="M600 200h-100v-200h-100v200h-100v-200h-100v200h-100v100h100v100h-100v100h100v200h100v-200h100v200h100v-200h100v-100h-100v-100h100v-100zM400 300v100h-100v-100h100z" />
    <glyph glyph-name="dollar" unicode="$" 
d="M600 200c0 -50 -20.833 -95.833 -62.5 -137.5s-87.5 -62.5 -137.5 -62.5h-100c-50 -0 -95.833 20.833 -137.5 62.5s-62.5 87.5 -62.5 137.5h100c0 -24.667 10.5 -47.5 31.5 -68.5s43.833 -31.5 68.5 -31.5v200c-50 0 -95.833 20.833 -137.5 62.5s-62.5 87.5 -62.5 137.5
s20.833 95.833 62.5 137.5s87.5 62.5 137.5 62.5h100c50 0 95.833 -20.833 137.5 -62.5s62.5 -87.5 62.5 -137.5h-100c0 25.333 -10.333 48.333 -31 69s-43.667 31 -69 31v-200c50 0 95.833 -20.833 137.5 -62.5s62.5 -87.5 62.5 -137.5zM300 400v200
c-24.667 0 -47.5 -10.333 -68.5 -31s-31.5 -43.667 -31.5 -69c0 -24.667 10.5 -47.5 31.5 -68.5s43.833 -31.5 68.5 -31.5zM500 200c0 25.333 -10.333 48.333 -31 69s-43.667 31 -69 31v-200c25.333 0 48.333 10.5 69 31.5s31 43.833 31 68.5z" />
    <glyph glyph-name="percent" unicode="%" 
d="M300 600c0 -27.333 -9.83301 -50.833 -29.5 -70.5s-43.167 -29.5 -70.5 -29.5s-50.833 9.83301 -70.5 29.5s-29.5 43.167 -29.5 70.5s9.83301 50.833 29.5 70.5s43.167 29.5 70.5 29.5s50.833 -9.83301 70.5 -29.5s29.5 -43.167 29.5 -70.5zM600 525l-425 -425h-75v75
l425 425h75v-75zM600 100c0 -27.333 -9.83301 -50.833 -29.5 -70.5s-43.167 -29.5 -70.5 -29.5s-50.833 9.83301 -70.5 29.5s-29.5 43.167 -29.5 70.5s9.83301 50.833 29.5 70.5s43.167 29.5 70.5 29.5s50.833 -9.83301 70.5 -29.5s29.5 -43.167 29.5 -70.5z" />
    <glyph glyph-name="ampersand" unicode="&#x26;" 
d="M600 226c-28.667 -32.667 -53.333 -59.666 -74 -80.999l74 -70v-75h-75l-72 77c-61.333 -51.333 -112.333 -77 -153 -77c-49.333 0 -95 21 -137 63s-63 87.667 -63 137c0 50 25.667 101 77 153c-30 29.333 -49 50.666 -57 63.999c-13.333 22 -20 49.667 -20 83
c0 30.667 5.33301 56 16 76c8 15.333 24.333 35 49 59c34.667 35.333 63 53 85 53s50.333 -17.667 85 -53c24.667 -24 41 -43.667 49 -59c10.667 -20 16 -45.333 16 -76c0 -49.333 -25.667 -100 -77 -152l127 -127l75 79h75v-74zM300.001 500.001c0 17.333 -5 32.333 -15 45
c-1.33301 2 -13 13.333 -35 34c-22 -20.667 -33.667 -32 -35 -34c-10 -12.667 -15 -27.667 -15 -45s5.5 -32 16.5 -44l33.5 -35l36 37c9.33301 10.667 14 24.667 14 42zM379.001 150.001l-129 129c-8.66699 -8 -20.667 -20.333 -36 -37
c-9.33301 -10.667 -14 -24.667 -14 -42c0 -22 11.167 -44.167 33.5 -66.5s44.5 -33.5 66.5 -33.5c20 0 46.333 16.667 79 50z" />
    <glyph glyph-name="quotesingle" unicode="'" 
d="M400 400h-100v300h100v-300z" />
    <glyph glyph-name="parenleft" unicode="(" 
d="M500 0l-75 -0.00390625l-125 125c-42.667 42.667 -69.334 75.334 -80.001 98.001c-13.333 28 -20 70.333 -20 127s6.66699 99 20 127c10.667 22.667 37.334 55.334 80.001 98.001l125 125h75v-75l-125 -125c-32 -32 -51.333 -53.667 -58 -65
c-11.333 -19.333 -17 -47.666 -17 -84.999s5.66699 -65.666 17 -84.999c6.66699 -11.333 26 -33 58 -65l125 -125v-75z" />
    <glyph glyph-name="parenright" unicode=")" 
d="M500 350c0 -56.667 -6.66699 -98.9961 -20 -126.996c-10.667 -22.667 -37.334 -55.334 -80.001 -98.001l-125 -125h-75v75l125 125c32 32 51.333 53.667 58 65c11.333 19.333 17 47.666 17 84.999s-5.66699 65.666 -17 84.999c-6.66699 11.333 -26 33 -58 65l-125 125v75
h75l125 -125c42.667 -42.667 69.334 -75.334 80.001 -98.001c13.333 -28 20 -70.333 20 -127z" />
    <glyph glyph-name="asterisk" unicode="*" 
d="M600 100h-75l-125 125v-225h-100v225l-125 -125h-75v75l175 175l-175 175v75h75l125 -125v225h100v-225l125 125h75v-75l-175 -175l175 -175v-75z" />
    <glyph glyph-name="plus" unicode="+" 
d="M600 300h-200v-200h-100v200h-200v100h200v200h100v-200h200v-100z" />
    <glyph glyph-name="comma" unicode="," 
d="M400 100c0 -50 -20.833 -95.833 -62.5 -137.5s-87.5 -62.5 -137.5 -62.5v100c25.333 -0 48.333 10.333 69 31s31 43.667 31 69v150h100v-150z" />
    <glyph glyph-name="hyphen" unicode="-" 
d="M600 300h-500v100h500v-100z" />
    <glyph glyph-name="hyphen" unicode="&#x2010;" 
d="M600 300h-500v100h500v-100z" />
    <glyph glyph-name="period" unicode="." 
d="M400 0h-100v100h100v-100z" />
    <glyph glyph-name="slash" unicode="/" 
d="M600 500l-450 -450l-50 150l450 450z" />
    <glyph glyph-name="zero" unicode="0" 
d="M600 200c0 -50 -20.833 -95.833 -62.5 -137.5s-87.5 -62.5 -137.5 -62.5h-100c-50 -0 -95.833 20.833 -137.5 62.5s-62.5 87.5 -62.5 137.5v300c0 50 20.833 95.833 62.5 137.5s87.5 62.5 137.5 62.5h100c50 0 95.833 -20.833 137.5 -62.5s62.5 -87.5 62.5 -137.5v-300z
M500 200v300c0 25.333 -10.333 48.333 -31 69s-43.667 31 -69 31h-100c-24.667 0 -47.5 -10.333 -68.5 -31s-31.5 -43.667 -31.5 -69v-300c0 -24.667 10.5 -47.5 31.5 -68.5s43.833 -31.5 68.5 -31.5h100c25.333 0 48.333 10.5 69 31.5s31 43.833 31 68.5zM400 300h-100v100
h100v-100z" />
    <glyph glyph-name="one" unicode="1" 
d="M500 0h-300v100h100v432c-32.667 -21.333 -66 -32 -100 -32v100c25.333 0 48.333 10.5 69 31.5s31 43.833 31 68.5h100v-600h100v-100z" />
    <glyph glyph-name="two" unicode="2" 
d="M600 0h-500v200c0 50 20.833 95.833 62.5 137.5s87.5 62.5 137.5 62.5h100c25.333 0 48.333 10.333 69 31s31 43.667 31 69s-10.333 48.333 -31 69s-43.667 31 -69 31h-100c-25.333 0 -48.333 -10.333 -69 -31s-31 -43.667 -31 -69h-100c0 50 20.833 95.833 62.5 137.5
s87.5 62.5 137.5 62.5h100c50 0 95.833 -20.833 137.5 -62.5s62.5 -87.5 62.5 -137.5s-20.833 -95.833 -62.5 -137.5s-87.5 -62.5 -137.5 -62.5h-100c-25.333 0 -48.333 -10.333 -69 -31s-31 -43.667 -31 -69v-100h400v-100z" />
    <glyph glyph-name="three" unicode="3" 
d="M600 200c0 -50 -20.833 -95.833 -62.5 -137.5s-87.5 -62.5 -137.5 -62.5h-100c-50 -0 -95.833 20.833 -137.5 62.5s-62.5 87.5 -62.5 137.5h100c0 -25.333 10.333 -48.333 31 -69s43.667 -31 69 -31h100c25.333 0 48.333 10.333 69 31s31 43.667 31 69
s-10.333 48.333 -31 69s-43.667 31 -69 31h-200l300 300h-400v100h500v-150l-156 -156c42 -12 78.5 -36.667 109.5 -74s46.5 -77.333 46.5 -120z" />
    <glyph glyph-name="four" unicode="4" 
d="M600 200h-100v-200h-100v200h-300v200l300 300h100v-400h100v-100zM400 300v250l-200 -200v-50h200z" />
    <glyph glyph-name="five" unicode="5" 
d="M600 200c0 -50 -20.833 -95.833 -62.5 -137.5s-87.5 -62.5 -137.5 -62.5h-100c-50 -0 -95.833 20.833 -137.5 62.5s-62.5 87.5 -62.5 137.5h100c0 -25.333 10.333 -48.333 31 -69s43.667 -31 69 -31h100c25.333 0 48.333 10.333 69 31s31 43.667 31 69v100
c0 25.333 -10.333 48.333 -31 69s-43.667 31 -69 31h-300v300h500v-100h-400v-100h200c50 0 95.833 -20.833 137.5 -62.5s62.5 -87.5 62.5 -137.5v-100z" />
    <glyph glyph-name="six" unicode="6" 
d="M600 200c0 -50 -20.832 -95.832 -62.499 -137.499s-87.5 -62.5 -137.5 -62.5h-100c-50 0 -95.833 20.833 -137.5 62.5s-62.5 87.5 -62.5 137.5v200c0 75.333 31.167 144.166 93.5 206.499s131.166 93.5 206.499 93.5h100v-100h-100c-50 0 -95.833 -20.833 -137.5 -62.5
s-62.5 -87.5 -62.5 -137.5h200c50 0 95.833 -20.833 137.5 -62.5s62.5 -87.5 62.5 -137.5zM500.001 200.001c0 25.333 -10.333 48.333 -31 69s-43.667 31 -69 31h-200v-100c0 -25.333 10.333 -48.333 31 -69s43.667 -31 69 -31h100c25.333 0 48.333 10.333 69 31
s31 43.667 31 69z" />
    <glyph glyph-name="seven" unicode="7" 
d="M600 600c0 -42 -26 -87.667 -78 -137l-144 -126c-52 -49.333 -78 -95 -78 -137v-200h-100v200c0 57.333 25.667 114 77 170c14.667 15.333 62.667 57 144 125c52 43.333 78.333 78.333 79 105h-400v100h500v-100z" />
    <glyph glyph-name="eight" unicode="8" 
d="M600 200c0 -50 -20.833 -95.833 -62.5 -137.5s-87.5 -62.5 -137.5 -62.5h-100c-50 -0 -95.833 20.833 -137.5 62.5s-62.5 87.5 -62.5 137.5c0 56.667 25.333 106.667 76 150c-50.667 43.333 -76 93.333 -76 150c0 50 20.833 95.833 62.5 137.5s87.5 62.5 137.5 62.5h100
c50 0 95.833 -20.833 137.5 -62.5s62.5 -87.5 62.5 -137.5c0 -56.667 -25.333 -106.667 -76 -150c50.667 -43.333 76 -93.333 76 -150zM500 500c0 25.333 -10.333 48.333 -31 69s-43.667 31 -69 31h-100c-25.333 0 -48.333 -10.333 -69 -31s-31 -43.667 -31 -69
s10.333 -48.333 31 -69s43.667 -31 69 -31h100c25.333 0 48.333 10.333 69 31s31 43.667 31 69zM500 200c0 25.333 -10.333 48.333 -31 69s-43.667 31 -69 31h-100c-25.333 0 -48.333 -10.333 -69 -31s-31 -43.667 -31 -69s10.333 -48.333 31 -69s43.667 -31 69 -31h100
c25.333 0 48.333 10.333 69 31s31 43.667 31 69z" />
    <glyph glyph-name="nine" unicode="9" 
d="M600 300c0 -75.333 -31.168 -144.167 -93.501 -206.5s-131.166 -93.5 -206.499 -93.5h-100v100h100c50 0 95.833 20.833 137.5 62.5s62.5 87.5 62.5 137.5h-200c-50 0 -95.833 20.833 -137.5 62.5s-62.5 87.5 -62.5 137.5s20.833 95.833 62.5 137.5s87.5 62.5 137.5 62.5
h100c50 0 95.833 -20.833 137.5 -62.5s62.5 -87.5 62.5 -137.5v-200zM499.999 399.999v100c0 25.333 -10.333 48.333 -31 69s-43.667 31 -69 31h-100c-25.333 0 -48.333 -10.333 -69 -31s-31 -43.667 -31 -69s10.333 -48.333 31 -69s43.667 -31 69 -31h200z" />
    <glyph glyph-name="colon" unicode=":" 
d="M400 400h-100v100h100v-100zM400 100h-100v100h100v-100z" />
    <glyph glyph-name="semicolon" unicode=";" 
d="M400 400h-100v100h100v-100zM400 100c0 -50 -20.833 -95.833 -62.5 -137.5s-87.5 -62.5 -137.5 -62.5v100c25.333 -0 48.333 10.333 69 31s31 43.667 31 69v100h100v-100z" />
    <glyph glyph-name="less" unicode="&#x3c;" 
d="M500 100l-50 -100l-350 350l350 350l50 -100l-250 -250z" />
    <glyph glyph-name="equal" unicode="=" 
d="M600 400h-500v100h500v-100zM600 100h-500v100h500v-100z" />
    <glyph glyph-name="greater" unicode="&#x3e;" 
d="M600 350l-350 -350l-50 100l250 250l-250 250l50 100z" />
    <glyph glyph-name="question" unicode="?" 
d="M600 500c0 -43.333 -17.333 -83.333 -52 -120c-17.333 -18.667 -49.333 -44 -96 -76c-34.667 -24 -52 -42 -52 -54v-50h-100v50c0 28 17.333 57 52 87l96 76c34.667 30 52 59 52 87c0 25.333 -10.333 48.333 -31 69s-43.667 31 -69 31h-100
c-25.333 0 -48.333 -10.333 -69 -31s-31 -43.667 -31 -69h-100c0 50 20.833 95.833 62.5 137.5s87.5 62.5 137.5 62.5h100c50 0 95.833 -20.833 137.5 -62.5s62.5 -87.5 62.5 -137.5zM400 0h-100v100h100v-100z" />
    <glyph glyph-name="at" unicode="@" 
d="M600 350c0 -37.333 -15.6689 -71.666 -47.002 -102.999s-65.666 -47 -102.999 -47s-71.666 15.667 -102.999 47s-47 65.666 -47 102.999c0 47.333 15.667 85 47 113c28 24.667 62.333 37 103 37h50c0 25.333 -10.333 48.333 -31 69s-43.667 31 -69 31h-100
c-24.667 0 -47.5 -10.333 -68.5 -31s-31.5 -43.667 -31.5 -69v-300c0 -24.667 10.5 -47.5 31.5 -68.5s43.833 -31.5 68.5 -31.5h200v-100h-200c-50 -0 -95.833 20.833 -137.5 62.5s-62.5 87.5 -62.5 137.5v300c0 50 20.833 95.833 62.5 137.5s87.5 62.5 137.5 62.5h100
c50 0 95.833 -20.833 137.5 -62.5s62.5 -87.5 62.5 -137.5v-150zM499.998 350v50h-50c-12.667 0 -24.167 -5.16699 -34.5 -15.5s-15.5 -21.833 -15.5 -34.5s5.16699 -24.167 15.5 -34.5s21.833 -15.5 34.5 -15.5s24.167 5.16699 34.5 15.5s15.5 21.833 15.5 34.5z" />
    <glyph glyph-name="A" unicode="A" 
d="M600 0h-100v200h-300v-200h-100v500l200 200h100l200 -200v-500zM500 300v150l-150 150l-150 -150v-150h300z" />
    <glyph glyph-name="B" unicode="B" 
d="M600 200c0 -50 -20.833 -95.833 -62.5 -137.5s-87.5 -62.5 -137.5 -62.5h-300v700h300c50 0 95.833 -20.833 137.5 -62.5s62.5 -87.5 62.5 -137.5c0 -56.667 -25.333 -106.667 -76 -150c50.667 -43.333 76 -93.333 76 -150zM500 500c0 25.333 -10.333 48.333 -31 69
s-43.667 31 -69 31h-200v-200h200c25.333 0 48.333 10.333 69 31s31 43.667 31 69zM500 200c0 25.333 -10.333 48.333 -31 69s-43.667 31 -69 31h-200v-200h200c25.333 0 48.333 10.333 69 31s31 43.667 31 69z" />
    <glyph glyph-name="C" unicode="C" 
d="M600 200c0 -50 -20.833 -95.833 -62.5 -137.5s-87.5 -62.5 -137.5 -62.5h-100c-50 -0 -95.833 20.833 -137.5 62.5s-62.5 87.5 -62.5 137.5v300c0 50 20.833 95.833 62.5 137.5s87.5 62.5 137.5 62.5h100c50 0 95.833 -20.833 137.5 -62.5s62.5 -87.5 62.5 -137.5h-100
c0 25.333 -10.333 48.333 -31 69s-43.667 31 -69 31h-100c-24.667 0 -47.5 -10.333 -68.5 -31s-31.5 -43.667 -31.5 -69v-300c0 -24.667 10.5 -47.5 31.5 -68.5s43.833 -31.5 68.5 -31.5h100c25.333 0 48.333 10.5 69 31.5s31 43.833 31 68.5h100z" />
    <glyph glyph-name="D" unicode="D" 
d="M600 200c0 -50 -20.833 -95.833 -62.5 -137.5s-87.5 -62.5 -137.5 -62.5h-300v700h300c50 0 95.833 -20.833 137.5 -62.5s62.5 -87.5 62.5 -137.5v-300zM500 200v300c0 25.333 -10.333 48.333 -31 69s-43.667 31 -69 31h-200v-500h200c25.333 0 48.333 10.5 69 31.5
s31 43.833 31 68.5z" />
    <glyph glyph-name="E" unicode="E" 
d="M600 0h-500v700h500v-100h-400v-204h300v-96h-300v-200h400v-100z" />
    <glyph glyph-name="F" unicode="F" 
d="M600 600h-400v-204h300v-96h-300v-300h-100v700h500v-100z" />
    <glyph glyph-name="G" unicode="G" 
d="M600 0h-300c-50 -0 -95.833 20.833 -137.5 62.5s-62.5 87.5 -62.5 137.5v300c0 50 20.833 95.833 62.5 137.5s87.5 62.5 137.5 62.5h100c50 0 95.833 -20.833 137.5 -62.5s62.5 -87.5 62.5 -137.5h-100c0 25.333 -10.333 48.333 -31 69s-43.667 31 -69 31h-100
c-24.667 0 -47.5 -10.333 -68.5 -31s-31.5 -43.667 -31.5 -69v-300c0 -24.667 10.5 -47.5 31.5 -68.5s43.833 -31.5 68.5 -31.5h200v100h-100v100h200v-300z" />
    <glyph glyph-name="H" unicode="H" 
d="M600 0h-100v300h-300v-300h-100v700h100v-300h300v300h100v-700z" />
    <glyph glyph-name="I" unicode="I" 
d="M500 0h-300v100h100v500h-100v100h300v-100h-100v-500h100v-100z" />
    <glyph glyph-name="J" unicode="J" 
d="M600 200c0 -50 -20.833 -95.833 -62.5 -137.5s-87.5 -62.5 -137.5 -62.5h-100c-50 -0 -95.833 20.833 -137.5 62.5s-62.5 87.5 -62.5 137.5h100c0 -24.667 10.5 -47.5 31.5 -68.5s43.833 -31.5 68.5 -31.5h100c25.333 0 48.333 10.5 69 31.5s31 43.833 31 68.5v500h100
v-500z" />
    <glyph glyph-name="K" unicode="K" 
d="M600 50v-50h-100l-300 300v-300h-100v700h100v-300l300 300h100v-50l-300 -300z" />
    <glyph glyph-name="L" unicode="L" 
d="M600 0h-500v700h100v-600h400v-100z" />
    <glyph glyph-name="M" unicode="M" 
d="M600 0h-100v500l-150 -150l-150 150v-500h-100v700h50l200 -200l200 200h50v-700z" />
    <glyph glyph-name="N" unicode="N" 
d="M600 0h-100v150l-300 300v-450h-100v700h100v-100l300 -300v400h100v-700z" />
    <glyph glyph-name="O" unicode="O" 
d="M600 200c0 -50 -20.833 -95.833 -62.5 -137.5s-87.5 -62.5 -137.5 -62.5h-100c-50 -0 -95.833 20.833 -137.5 62.5s-62.5 87.5 -62.5 137.5v300c0 50 20.833 95.833 62.5 137.5s87.5 62.5 137.5 62.5h100c50 0 95.833 -20.833 137.5 -62.5s62.5 -87.5 62.5 -137.5v-300z
M500 200v300c0 25.333 -10.333 48.333 -31 69s-43.667 31 -69 31h-100c-24.667 0 -47.5 -10.333 -68.5 -31s-31.5 -43.667 -31.5 -69v-300c0 -24.667 10.5 -47.5 31.5 -68.5s43.833 -31.5 68.5 -31.5h100c25.333 0 48.333 10.5 69 31.5s31 43.833 31 68.5z" />
    <glyph glyph-name="P" unicode="P" 
d="M200 300v-300h-100v700h300c50 0 95.833 -20.833 137.5 -62.5s62.5 -87.5 62.5 -137.5c0 -66 -20.667 -117 -62 -153c-36.667 -31.333 -82.667 -47 -138 -47h-200zM500 500c0 25.333 -10.333 48.333 -31 69s-43.667 31 -69 31h-200v-200h200
c25.333 0 48.333 10.333 69 31s31 43.667 31 69z" />
    <glyph glyph-name="Q" unicode="Q" 
d="M600 0h-99.999l-20 20c-26.667 -13.333 -53.334 -20 -80.001 -20h-100c-50 -0 -95.833 20.833 -137.5 62.5s-62.5 87.5 -62.5 137.5v300c0 50 20.833 95.833 62.5 137.5s87.5 62.5 137.5 62.5h100c50 0 95.833 -20.833 137.5 -62.5s62.5 -87.5 62.5 -137.5v-300
c0 -38 -13 -75 -39 -111l39 -39v-50zM500.001 200v300.001c0 25.333 -10.333 48.333 -31 69s-43.667 31 -69 31h-100c-25.333 0 -48.333 -10.333 -69 -31s-31 -43.667 -31 -69v-300c0 -25.333 10.333 -48.333 31 -69s43.667 -31 69 -31h100l-100 100l50 100l140 -140
c6.66699 13.333 10 26.666 10 39.999z" />
    <glyph glyph-name="R" unicode="R" 
d="M600 0h-100l-300 300v-300h-100v700h300c50 0 95.833 -20.833 137.5 -62.5s62.5 -87.5 62.5 -137.5c0 -66 -20.667 -117 -62 -153c-36.667 -31.333 -82.667 -47 -138 -47h-50l250 -250v-50zM500 500c0 25.333 -10.333 48.333 -31 69s-43.667 31 -69 31h-200v-200h200
c25.333 0 48.333 10.333 69 31s31 43.667 31 69z" />
    <glyph glyph-name="S" unicode="S" 
d="M600 200c0 -50 -20.833 -95.833 -62.5 -137.5s-87.5 -62.5 -137.5 -62.5h-100c-50 -0 -95.833 20.833 -137.5 62.5s-62.5 87.5 -62.5 137.5h100c0 -24.667 10.5 -47.5 31.5 -68.5s43.833 -31.5 68.5 -31.5h100c25.333 0 48.333 10.5 69 31.5s31 43.833 31 68.5
c0 25.333 -10.333 48.333 -31 69s-43.667 31 -69 31h-100c-50 0 -95.833 20.833 -137.5 62.5s-62.5 87.5 -62.5 137.5s20.833 95.833 62.5 137.5s87.5 62.5 137.5 62.5h100c50 0 95.833 -20.833 137.5 -62.5s62.5 -87.5 62.5 -137.5h-100c0 25.333 -10.333 48.333 -31 69
s-43.667 31 -69 31h-100c-24.667 0 -47.5 -10.333 -68.5 -31s-31.5 -43.667 -31.5 -69c0 -24.667 10.5 -47.5 31.5 -68.5s43.833 -31.5 68.5 -31.5h100c50 0 95.833 -20.833 137.5 -62.5s62.5 -87.5 62.5 -137.5z" />
    <glyph glyph-name="T" unicode="T" 
d="M600 600h-200v-600h-100v600h-200v100h500v-100z" />
    <glyph glyph-name="U" unicode="U" 
d="M600 200c0 -50 -20.833 -95.833 -62.5 -137.5s-87.5 -62.5 -137.5 -62.5h-100c-50 -0 -95.833 20.833 -137.5 62.5s-62.5 87.5 -62.5 137.5v500h100v-500c0 -24.667 10.5 -47.5 31.5 -68.5s43.833 -31.5 68.5 -31.5h100c25.333 0 48.333 10.5 69 31.5s31 43.833 31 68.5
v500h100v-500z" />
    <glyph glyph-name="V" unicode="V" 
d="M600 400l-200 -400h-100l-200 400v300h100v-275l150 -300l150 300v275h100v-300z" />
    <glyph glyph-name="W" unicode="W" 
d="M600 150c0 -37.333 -15.6689 -71.666 -47.002 -102.999s-65.666 -47 -102.999 -47c-36 0 -69.333 14.667 -100 44c-30.667 -29.333 -64 -44 -100 -44c-37.333 0 -71.666 15.667 -102.999 47s-47 65.666 -47 102.999v550h100v-550c0 -12.667 5.16699 -24.167 15.5 -34.5
s21.833 -15.5 34.5 -15.5s24.167 5.16699 34.5 15.5s15.5 21.833 15.5 34.5v250h100v-250c0 -12.667 5.16699 -24.167 15.5 -34.5s21.833 -15.5 34.5 -15.5s24.167 5.16699 34.5 15.5s15.5 21.833 15.5 34.5v550h100v-550z" />
    <glyph glyph-name="X" unicode="X" 
d="M600 0h-100v150l-150 150l-150 -150v-150h-100v200l150 150l-150 150v200h100v-150l150 -150l150 150v150h100v-200l-150 -150l150 -150v-200z" />
    <glyph glyph-name="Y" unicode="Y" 
d="M600 500l-200 -200v-300h-100v300l-200 200v200h100v-150l150 -150l150 150v150h100v-200z" />
    <glyph glyph-name="Z" unicode="Z" 
d="M600 0h-500v175l400 400v25h-400v100h500v-175l-400 -400v-25h400v-100z" />
    <glyph glyph-name="bracketleft" unicode="[" 
d="M600 300h-300l125 -125v-75h-75l-250 250l250 250h75v-75l-125 -125h300v-100z" />
    <glyph glyph-name="backslash" unicode="\" 
d="M600 100h-75l-425 425v75h75l425 -425v-75z" />
    <glyph glyph-name="bracketright" unicode="]" 
d="M600 350l-250 -250h-75v75l125 125h-300v100h300l-125 125v75h75z" />
    <glyph glyph-name="asciicircum" unicode="^" 
d="M600 350v-75h-75l-125 125v-300h-100v300l-125 -125h-75v75l250 250z" />
    <glyph glyph-name="underscore" unicode="_" 
d="M600 -100h-500v100h500v-100z" />
    <glyph glyph-name="grave" unicode="`" 
d="M600 400h-500v100h500v-100z" />
    <glyph glyph-name="a" unicode="a" 
d="M600 0l-350 0.00292969c-37.333 0 -71.666 15.667 -102.999 47s-47 65.666 -47 102.999s15.667 71.666 47 102.999s65.666 47 102.999 47h250c0 24.667 -10.333 47.167 -31 67.5s-43.667 31.166 -69 32.499c0 -1.33301 -66.667 -1.33301 -200 0v100h200
c50 0 95.833 -20.833 137.5 -62.5s62.5 -87.5 62.5 -137.5v-300zM500 100.003v100h-250c-13.333 0 -25 -5.16699 -35 -15.5s-15 -21.833 -15 -34.5s5 -24.167 15 -34.5s21.667 -15.5 35 -15.5h250z" />
    <glyph glyph-name="b" unicode="b" 
d="M600 300v-100c0 -50 -20.833 -95.833 -62.5 -137.5s-87.5 -62.5 -137.5 -62.5h-300v700h100v-200h200c50 0 95.833 -20.833 137.5 -62.5s62.5 -87.5 62.5 -137.5zM500 200v100.001c0 24.667 -10.333 47.167 -31 67.5s-43.667 31.166 -69 32.499h-200v-300h200
c24 0 46.667 10.667 68 32s32 44 32 68z" />
    <glyph glyph-name="c" unicode="c" 
d="M600 0l-300 -0.000976562c-50 0 -95.833 20.833 -137.5 62.5s-62.5 87.5 -62.5 137.5v100c0 50 20.833 95.833 62.5 137.5s87.5 62.5 137.5 62.5h300v-100h-300c-25.333 -1.33301 -48.333 -12.166 -69 -32.499s-31 -42.833 -31 -67.5v-100c0 -24 10.667 -46.667 32 -68
s44 -32 68 -32h300v-100z" />
    <glyph glyph-name="d" unicode="d" 
d="M100 300c0 50 20.833 95.833 62.5 137.5s87.5 62.5 137.5 62.5h200v200h100v-700h-300c-50 -0 -95.833 20.833 -137.5 62.5s-62.5 87.5 -62.5 137.5v100zM500 100v299.999h-200c-25.333 -1.33301 -48.333 -12.166 -69 -32.499s-31 -42.833 -31 -67.5v-100
c0 -24 10.667 -46.667 32 -68s44 -32 68 -32h200z" />
    <glyph glyph-name="e" unicode="e" 
d="M600 200h-400c0 -24 10.667 -46.667 32 -68s44 -32 68 -32h200v-100h-200c-50 -0 -95.833 20.833 -137.5 62.5s-62.5 87.5 -62.5 137.5v100c0 50 20.833 95.833 62.5 137.5s87.5 62.5 137.5 62.5h100c57.333 0 106.333 -24 147 -72c35.333 -42 53 -84.667 53 -128v-100z
M500 300c0 25.333 -10.333 48.332 -31 68.999s-43.667 31 -69 31h-100c-25.333 -1.33301 -48.333 -12.166 -69 -32.499s-31 -42.833 -31 -67.5h300z" />
    <glyph glyph-name="f" unicode="f" 
d="M500 300h-100v-300h-100v300h-100v100h100v100c0 50 20.833 95.833 62.5 137.5s87.5 62.5 137.5 62.5v-100c-24.667 0 -47.5 -10.333 -68.5 -31s-31.5 -43.667 -31.5 -69v-100h100v-100z" />
    <glyph glyph-name="g" unicode="g" 
d="M600 0c0 -50 -20.833 -95.833 -62.5 -137.5s-87.5 -62.5 -137.5 -62.5h-200v100h200c25.333 0 48.333 10.333 69 31s31 43.667 31 69h-200c-50 -0 -95.833 20.833 -137.5 62.5s-62.5 87.5 -62.5 137.5v100c0 50 20.833 95.833 62.5 137.5s87.5 62.5 137.5 62.5h300v-500z
M500 100v299.999h-200c-24 0 -46.667 -10.667 -68 -32s-32 -44 -32 -68v-100c0 -24.667 10.333 -47.167 31 -67.5s43.667 -31.166 69 -32.499h200z" />
    <glyph glyph-name="h" unicode="h" 
d="M600 0h-100v300c0 25.333 -10.333 48.333 -31 69s-43.667 31 -69 31h-200v-400h-100v700h100v-200h200c50 0 95.833 -20.833 137.5 -62.5s62.5 -87.5 62.5 -137.5v-300z" />
    <glyph glyph-name="i" unicode="i" 
d="M400 600h-100v100h100v-100zM500 0h-300v100h100v300h-100v100h200v-400h100v-100z" />
    <glyph glyph-name="j" unicode="j" 
d="M400 600h-100v100h100v-100zM400 0c0 -61.333 -20.667 -110.667 -62 -148c-38.667 -34.667 -84.667 -52 -138 -52v100c25.333 0 48.333 10.333 69 31s31 43.667 31 69v500h100v-500z" />
    <glyph glyph-name="k" unicode="k" 
d="M600 0h-100l-200 200v-200h-100v700h100v-400l200 200h100v-50l-200 -200l200 -200v-50z" />
    <glyph glyph-name="l" unicode="l" 
d="M500 0h-300v100h100v500h-100v100h200v-600h100v-100z" />
    <glyph glyph-name="m" unicode="m" 
d="M600 0l-100 -0.000976562v350c0 12.667 -5.16699 24.167 -15.5 34.5s-21.833 15.5 -34.5 15.5s-24.167 -5.16699 -34.5 -15.5s-15.5 -21.833 -15.5 -34.5v-350h-100v350c0 12.667 -5.16699 24.167 -15.5 34.5s-21.833 15.5 -34.5 15.5s-24.167 -5.16699 -34.5 -15.5
s-15.5 -21.833 -15.5 -34.5v-350h-100v500h100v-11c16.667 7.33301 33.334 11 50.001 11c36 0 69.333 -14.667 100 -44c30.667 29.333 64 44 100 44c37.333 0 71.666 -15.667 102.999 -47s47 -65.666 47 -102.999v-350z" />
    <glyph glyph-name="n" unicode="n" 
d="M600 0h-100v300c0 25.333 -10.333 48.333 -31 69s-43.667 31 -69 31h-200v-400h-100v500h300c50 0 95.833 -20.833 137.5 -62.5s62.5 -87.5 62.5 -137.5v-300z" />
    <glyph glyph-name="o" unicode="o" 
d="M600 200c0 -50 -20.833 -95.833 -62.5 -137.5s-87.5 -62.5 -137.5 -62.5h-100c-50 -0 -95.833 20.833 -137.5 62.5s-62.5 87.5 -62.5 137.5v100c0 50 20.833 95.833 62.5 137.5s87.5 62.5 137.5 62.5h100c50 0 95.833 -20.833 137.5 -62.5s62.5 -87.5 62.5 -137.5v-100z
M500 200v100c0 25.333 -10.333 48.333 -31 69s-43.667 31 -69 31h-100c-24.667 0 -47.5 -10.333 -68.5 -31s-31.5 -43.667 -31.5 -69v-100c0 -24.667 10.5 -47.5 31.5 -68.5s43.833 -31.5 68.5 -31.5h100c25.333 0 48.333 10.5 69 31.5s31 43.833 31 68.5z" />
    <glyph glyph-name="p" unicode="p" 
d="M600 200c0 -50 -20.833 -95.833 -62.5 -137.5s-87.5 -62.5 -137.5 -62.5h-200v-200h-100v700h300c50 0 95.833 -20.833 137.5 -62.5s62.5 -87.5 62.5 -137.5v-100zM500 200v100.001c0 24 -10.667 46.667 -32 68s-44 32 -68 32h-200v-300h200
c25.333 1.33301 48.333 12.166 69 32.499s31 42.833 31 67.5z" />
    <glyph glyph-name="q" unicode="q" 
d="M100 200v100c0 50 20.833 95.833 62.5 137.5s87.5 62.5 137.5 62.5h300v-700h-100v200h-200c-50 -0 -95.833 20.833 -137.5 62.5s-62.5 87.5 -62.5 137.5zM500 100v299.999h-200c-24 0 -46.667 -10.667 -68 -32s-32 -44 -32 -68v-100c0 -24.667 10.333 -47.167 31 -67.5
s43.667 -31.166 69 -32.499h200z" />
    <glyph glyph-name="r" unicode="r" 
d="M600 400h-100c-50 0 -95.833 -20.833 -137.5 -62.5s-62.5 -87.5 -62.5 -137.5v-200h-100v500h100v-88c61.333 58.667 128 88 200 88h100v-100z" />
    <glyph glyph-name="s" unicode="s" 
d="M600 150c0 -37.333 -15.667 -71.666 -47 -102.999s-65.666 -47 -102.999 -47h-350v100h350c12 0 23.667 5.16699 35 15.5s17 21.5 17 33.5c0 12.667 -5.5 24.334 -16.5 35.001s-22.833 16 -35.5 16h-200c-37.333 0 -71.666 15.667 -102.999 47s-47 65.666 -47 102.999
s15.667 71.666 47 102.999s65.666 47 102.999 47h350v-100h-350c-12 0 -23.667 -5.16699 -35 -15.5s-17 -21.5 -17 -33.5c0 -12.667 5.66699 -24.334 17 -35.001s23 -16 35 -16h200c37.333 0 71.666 -15.667 102.999 -47s47 -65.666 47 -102.999z" />
    <glyph glyph-name="t" unicode="t" 
d="M500 0c-50 0 -95.833 20.833 -137.5 62.5s-62.5 87.5 -62.5 137.5v200h-100v100h100v200h100v-200h100v-100h-100v-200c0 -24.667 10.5 -47.5 31.5 -68.5s43.833 -31.5 68.5 -31.5v-100z" />
    <glyph glyph-name="u" unicode="u" 
d="M600 0h-300c-50 -0 -95.833 20.833 -137.5 62.5s-62.5 87.5 -62.5 137.5v300h100v-300c0 -24.667 10.5 -47.5 31.5 -68.5s43.833 -31.5 68.5 -31.5h200v400h100v-500z" />
    <glyph glyph-name="v" unicode="v" 
d="M600 400l-200 -400h-100l-200 400v100h100v-75l150 -300l150 300v75h100v-100z" />
    <glyph glyph-name="w" unicode="w" 
d="M600 150c0 -37.333 -15.6689 -71.666 -47.002 -102.999s-65.666 -47 -102.999 -47c-36 0 -69.333 14.667 -100 44c-30.667 -29.333 -64 -44 -100 -44c-37.333 0 -71.666 15.667 -102.999 47s-47 65.666 -47 102.999v350h100v-350c0 -12.667 5.16699 -24.167 15.5 -34.5
s21.833 -15.5 34.5 -15.5s24.167 5.16699 34.5 15.5s15.5 21.833 15.5 34.5v150h100v-150c0 -12.667 5.16699 -24.167 15.5 -34.5s21.833 -15.5 34.5 -15.5s24.167 5.16699 34.5 15.5s15.5 21.833 15.5 34.5v350h100v-350z" />
    <glyph glyph-name="x" unicode="x" 
d="M600 0h-75l-175 175l-175 -175h-75v75l175 175l-175 175v75h75l175 -175l175 175h75v-75l-175 -175l175 -175v-75z" />
    <glyph glyph-name="y" unicode="y" 
d="M600 0c0 -50 -20.832 -95.833 -62.499 -137.5s-87.5 -62.5 -137.5 -62.5h-200v100h200c25.333 0 48.166 10.333 68.499 31s30.833 43.667 31.5 69h-200c-50 -0 -95.833 20.833 -137.5 62.5s-62.5 87.5 -62.5 137.5v300h100v-300c0 -25.333 10.333 -48.333 31 -69
s43.667 -31 69 -31h200v400h100v-500z" />
    <glyph glyph-name="z" unicode="z" 
d="M600 0h-500v75l325 325h-325v100h500v-75l-325 -325h325v-100z" />
    <glyph glyph-name="braceleft" unicode="{" 
d="M500 0h-300v700h300v-100h-175v-500h175v-100z" />
    <glyph glyph-name="bar" unicode="|" 
d="M500 0h-100v700h100v-700zM300 0h-100v700h100v-700z" />
    <glyph glyph-name="braceright" unicode="}" 
d="M500 0h-300v100h175v500h-175v100h300v-700z" />
    <glyph glyph-name="nonbreakingspace" unicode="&#xa0;" 
 />
    <glyph glyph-name="sterling" unicode="&#xa3;" 
d="M600 -100h-500v100h100v200h-100v100h100v200c0 50 20.833 95.833 62.5 137.5s87.5 62.5 137.5 62.5s95.833 -20.833 137.5 -62.5s62.5 -87.5 62.5 -137.5h-100c0 25.333 -10.333 48.333 -31 69s-43.667 31 -69 31c-24.667 0 -47.5 -10.333 -68.5 -31
s-31.5 -43.667 -31.5 -69v-200h100v-100h-100v-200h300v-100z" />
    <glyph glyph-name="onequarter" unicode="&#xbc;" 
d="M300 200h-100v500h100v-500zM600 -200h-100v100h-200v175l225 225h75v-500zM500 0v125l-100 -100v-25h100z" />
    <glyph glyph-name="onehalf" unicode="&#xbd;" 
d="M200 200h-100v500h100v-500zM600 -200l-300 -0.00292969v75c0 29.333 2 50.333 6 63c6.66699 18.667 21.334 39.334 44.001 62.001l150 150c0 12.667 -5.16699 24.167 -15.5 34.5s-21.833 15.5 -34.5 15.5h-150v100h150c37.333 0 71.666 -15.667 102.999 -47
s47 -65.666 47 -102.999c0 -33.333 -16.667 -66.666 -50 -99.999l-150 -150h200v-100z" />
    <glyph glyph-name="threequarters" unicode="&#xbe;" 
d="M400 350c0 -37.333 -15.667 -71.668 -47 -103.001s-65.666 -47 -102.999 -47h-150v100h150c12.667 0 24.167 5.16699 34.5 15.5s15.5 21.833 15.5 34.5s-5.16699 24.167 -15.5 34.5s-21.833 15.5 -34.5 15.5h-150v100h150c12.667 0 24.167 5.16699 34.5 15.5
s15.5 21.833 15.5 34.5s-5.16699 24.167 -15.5 34.5s-21.833 15.5 -34.5 15.5h-150v100h150c37.333 0 71.666 -15.667 102.999 -47s47 -65.666 47 -102.999c0 -36 -14.667 -69.333 -44 -100c29.333 -30.667 44 -64 44 -100zM600 -200.002h-100v100h-200v175l225 225h75v-500
zM500 -0.00195312v125l-100 -100v-25h100z" />
    <glyph glyph-name="divide" unicode="&#xf7;" 
d="M300 200h100v-100h-100v100zM100 400h500v-100h-500v100zM300 600h100v-100h-100v100z" />
    <glyph glyph-name=".null" horiz-adv-x="0" 
 />
    <glyph glyph-name="nonmarkingreturn" 
 />
    <glyph glyph-name="glyph103" 
 />
    <glyph glyph-name="glyph104" 
 />
    <glyph glyph-name="DEL" 
d="M0 700h600v-700h-600v700z" />
  </font>
</defs>
</svg>
