<?xml version="1.0" encoding="utf-8"?>
<!-- Generator: Adobe Illustrator 16.0.0, SVG Export Plug-In . SVG Version: 6.00 Build 0)  -->
<!DOCTYPE svg PUBLIC "-//W3C//DTD SVG 1.1//EN" "http://www.w3.org/Graphics/SVG/1.1/DTD/svg11.dtd">
<svg version="1.1" id="Layer_1" xmlns="http://www.w3.org/2000/svg" xmlns:xlink="http://www.w3.org/1999/xlink" x="0px" y="0px"
	 width="23.333px" height="34.333px" viewBox="0 0 23.333 34.333" enable-background="new 0 0 23.333 34.333" xml:space="preserve">
<g>
	<g>
		<path d="M4.058,4.615l15.416,13.8l-5.66-0.429l4.514,8.27c0.371,0.682,0.255,1.496-0.234,2.044
			c-0.133,0.146-0.291,0.273-0.475,0.375c-0.863,0.471-1.945,0.153-2.417-0.711l-4.34-7.951l-2.797,5.016L4.058,4.615 M2.221,2.97
			C1.713,3.536,1.485,4.316,1.637,5.09l4.007,20.415c0.199,1.016,1.011,1.8,2.033,1.96c0.84,0.134,1.673-0.174,2.225-0.79
			c0.12-0.134,0.226-0.281,0.317-0.444l0.621-1.11l2.198,4.027c0.543,0.995,1.442,1.72,2.531,2.04
			c1.089,0.319,2.236,0.195,3.232-0.348c0.427-0.232,0.807-0.533,1.13-0.895c1.197-1.338,1.423-3.296,0.563-4.87l-2.341-4.286
			l1.134,0.086c0.779,0.06,1.522-0.254,2.024-0.814c0.177-0.197,0.322-0.424,0.432-0.677c0.414-0.973,0.163-2.102-0.624-2.806
			L5.703,2.777C4.914,2.07,3.76,1.947,2.838,2.471C2.602,2.605,2.395,2.775,2.221,2.97"/>
	</g>
	<g>
		<path fill="#FAFCFD" d="M4.058,4.615l15.416,13.8l-5.66-0.429l4.514,8.27c0.371,0.682,0.255,1.496-0.234,2.044
			c-0.133,0.146-0.291,0.273-0.475,0.375c-0.863,0.471-1.945,0.153-2.417-0.711l-4.34-7.951l-2.797,5.016L4.058,4.615"/>
	</g>
</g>
</svg>
