<?xml version="1.0" encoding="utf-8"?>
<!-- Generator: Adobe Illustrator 16.0.0, SVG Export Plug-In . SVG Version: 6.00 Build 0)  -->
<!DOCTYPE svg PUBLIC "-//W3C//DTD SVG 1.1//EN" "http://www.w3.org/Graphics/SVG/1.1/DTD/svg11.dtd">
<svg version="1.1" id="Layer_1" xmlns="http://www.w3.org/2000/svg" xmlns:xlink="http://www.w3.org/1999/xlink" x="0px" y="0px"
	 width="28.167px" height="27.934px" viewBox="0 23.833 28.167 27.934" enable-background="new 0 23.833 28.167 27.934"
	 xml:space="preserve">
<g id="ARROWS_1_" enable-background="new    ">
	<g id="ARROWS">
		<g>
			<path d="M27.333,37.584c0-0.372-0.161-0.705-0.417-0.935l0,0l-4.193-3.773l0,0c-0.223-0.201-0.518-0.323-0.841-0.323
				c-0.695,0-1.258,0.562-1.258,1.258c0,0.371,0.161,0.704,0.417,0.935l0,0l1.756,1.581h-7.623v-7.624l1.58,1.756l0,0
				c0.23,0.255,0.564,0.417,0.936,0.417c0.695,0,1.258-0.563,1.258-1.258c0-0.324-0.123-0.619-0.323-0.842l0,0l-3.774-4.193l0,0
				c-0.229-0.255-0.564-0.416-0.935-0.416c-0.371,0-0.705,0.161-0.936,0.416l0,0l-3.773,4.193l0,0
				c-0.2,0.223-0.323,0.518-0.323,0.842c0,0.694,0.563,1.258,1.258,1.258c0.371,0,0.705-0.161,0.935-0.417l0,0l1.581-1.756v7.624
				H5.036l1.756-1.581l0,0c0.256-0.23,0.417-0.563,0.417-0.935c0-0.695-0.563-1.258-1.258-1.258c-0.324,0-0.619,0.122-0.842,0.323
				l0,0l-4.192,3.773l0,0C0.661,36.879,0.5,37.212,0.5,37.584c0,0.371,0.161,0.704,0.417,0.936l0,0l4.192,3.773l0,0
				c0.223,0.2,0.518,0.322,0.842,0.322c0.695,0,1.258-0.563,1.258-1.258c0-0.371-0.161-0.705-0.417-0.936l0,0l-1.756-1.58h7.624
				v7.623l-1.581-1.756l0,0c-0.23-0.256-0.564-0.417-0.935-0.417c-0.695,0-1.258,0.563-1.258,1.258c0,0.324,0.123,0.618,0.323,0.842
				l0,0l3.773,4.192l0,0C13.212,50.84,13.546,51,13.917,51c0.371,0,0.705-0.16,0.935-0.416l0,0l3.774-4.192l0,0
				c0.2-0.224,0.323-0.518,0.323-0.842c0-0.694-0.563-1.258-1.258-1.258c-0.371,0-0.706,0.161-0.936,0.417l0,0l-1.58,1.756v-7.623
				h7.623l-1.756,1.58l0,0c-0.256,0.23-0.417,0.564-0.417,0.936c0,0.694,0.563,1.258,1.258,1.258c0.324,0,0.618-0.123,0.841-0.322
				l0,0l4.193-3.773l0,0C27.173,38.289,27.333,37.955,27.333,37.584z"/>
		</g>
	</g>
</g>
</svg>
