<?xml version="1.0" encoding="utf-8"?>
<!-- Generator: Adobe Illustrator 16.0.0, SVG Export Plug-In . SVG Version: 6.00 Build 0)  -->
<!DOCTYPE svg PUBLIC "-//W3C//DTD SVG 1.1//EN" "http://www.w3.org/Graphics/SVG/1.1/DTD/svg11.dtd">
<svg version="1.1" id="Layer_1" xmlns="http://www.w3.org/2000/svg" xmlns:xlink="http://www.w3.org/1999/xlink" x="0px" y="0px"
	 width="96.341px" height="80.487px" viewBox="0 0 96.341 80.487" enable-background="new 0 0 96.341 80.487" xml:space="preserve">
<g>
	<path d="M89.301,15.656c0,3.977-2.081,7.2-4.647,7.2h-72.97c-2.563,0-4.644-3.224-4.644-7.2l0,0c0-3.973,2.08-7.196,4.644-7.196
		h72.97C87.22,8.46,89.301,11.684,89.301,15.656L89.301,15.656z"/>
	<path d="M89.301,40.242c0,3.977-2.081,7.2-4.647,7.2h-72.97c-2.563,0-4.644-3.224-4.644-7.2l0,0c0-3.973,2.08-7.196,4.644-7.196
		h72.97C87.22,33.046,89.301,36.27,89.301,40.242L89.301,40.242z"/>
	<path d="M89.301,64.827c0,3.977-2.081,7.2-4.647,7.2h-72.97c-2.563,0-4.644-3.224-4.644-7.2l0,0c0-3.973,2.08-7.196,4.644-7.196
		h72.97C87.22,57.631,89.301,60.854,89.301,64.827L89.301,64.827z"/>
</g>
</svg>
